<?xml version="1.0" encoding="UTF-8" standalone="no"?>
<svg
   xmlns:dc="http://purl.org/dc/elements/1.1/"
   xmlns:cc="http://creativecommons.org/ns#"
   xmlns:rdf="http://www.w3.org/1999/02/22-rdf-syntax-ns#"
   xmlns:svg="http://www.w3.org/2000/svg"
   xmlns="http://www.w3.org/2000/svg"
   xmlns:sodipodi="http://sodipodi.sourceforge.net/DTD/sodipodi-0.dtd"
   xmlns:inkscape="http://www.inkscape.org/namespaces/inkscape"
   width="59.5mm"
   height="22.5mm"
   viewBox="-29.75000000000001 -11.25  59.5 22.5"
   version="1.0"
   overflow="visible"
   id="svg4640"
   sodipodi:docname="back_pp.svg"
   inkscape:version="0.92.1 r15371"
   inkscape:export-filename="C:\Users\Tyler\Documents\eagle\morseSounder\PCB\pannels\rear_pp.png"
   inkscape:export-xdpi="1200"
   inkscape:export-ydpi="1200">
  <metadata
     id="metadata4644">
    <rdf:RDF>
      <cc:Work
         rdf:about="">
        <dc:format>image/svg+xml</dc:format>
        <dc:type
           rdf:resource="http://purl.org/dc/dcmitype/StillImage" />
        <dc:title />
      </cc:Work>
    </rdf:RDF>
  </metadata>
  <sodipodi:namedview
     pagecolor="#ffffff"
     bordercolor="#666666"
     borderopacity="1"
     objecttolerance="10"
     gridtolerance="10"
     guidetolerance="10"
     inkscape:pageopacity="0"
     inkscape:pageshadow="2"
     inkscape:window-width="1680"
     inkscape:window-height="987"
     id="namedview4642"
     showgrid="false"
     inkscape:document-units="mm"
     inkscape:zoom="4"
     inkscape:cx="91.072889"
     inkscape:cy="64.274698"
     inkscape:window-x="-8"
     inkscape:window-y="-8"
     inkscape:window-maximized="1"
     inkscape:current-layer="svg4640"
     showguides="false" />
  <defs
     id="defs4632">
    <g
       id="ID__#42_Model_Space" />
    <g
       id="ID__#42_Paper_Space0" />
    <g
       id="ID__#42_Paper_Space" />
  </defs>
  <g
     id="draft"
     transform="matrix(1 0 0 -1 0 0)"
     stroke-width="0.010250000000000002">
    <g
       id="ID_0"
       color="rgb(0,0,0)"
       stroke="currentColor"
       fill="none"
       stroke-width="0.010250000000000002">
      <circle
         cx="2.94899999999999"
         cy="1.260000000000001"
         r="4.75"
         id="CD" />
      <path
         d="M -22.93100000000002 -5.339999999999997 L -22.93100000000002 2.860000000000002 L -6.731000000000015 2.86 L -6.731000000000019 -5.339999999999998  z"
         id="B6" />
      <path
         d="M 19.79899999999998 -4.439999999999997 L 19.79899999999998 -2.039999999999997 L 24.19899999999998 -2.039999999999997 L 24.19899999999998 -4.439999999999997  z"
         id="BD" />
      <path
         d="M 28.24999999999999 -11.25 A 1.4999999999999951 1.4999999999999951 0 0  1 29.74999999999998 -9.749999999999998 L 29.75 9.749999999999995 A 1.500000000000008 1.500000000000008 0 0  1 28.24999999999999 11.25 L -28.25000000000001 11.25 A 1.5 1.5 0 0  1 -29.75000000000001 9.749999999999998 L -29.75000000000001 -9.749999999999998 A 1.5000000000000007 1.5000000000000007 0 0  1 -28.25000000000001 -11.25  z"
         id="C3" />
    </g>
  </g>
  <text
     xml:space="preserve"
     style="font-style:normal;font-variant:normal;font-weight:normal;font-stretch:normal;font-size:1.41111112px;line-height:125%;font-family:sans-serif;-inkscape-font-specification:sans-serif;letter-spacing:0px;word-spacing:0px;fill:#000000;fill-opacity:1;stroke:none;stroke-width:0.26458332px;stroke-linecap:butt;stroke-linejoin:miter;stroke-opacity:1"
     x="18.104858"
     y="0.6897704"
     id="text5191"><tspan
       sodipodi:role="line"
       id="tspan5189"
       x="18.104858"
       y="0.6897704"
       style="stroke-width:0.26458332px">Key/Paddle</tspan></text>
  <text
     xml:space="preserve"
     style="font-style:normal;font-variant:normal;font-weight:normal;font-stretch:normal;font-size:1.41111112px;line-height:125%;font-family:sans-serif;-inkscape-font-specification:sans-serif;letter-spacing:0px;word-spacing:0px;fill:#000000;fill-opacity:1;stroke:none;stroke-width:0.26458332px;stroke-linecap:butt;stroke-linejoin:miter;stroke-opacity:1"
     x="-19.980185"
     y="-4.1432924"
     id="text5195"><tspan
       sodipodi:role="line"
       id="tspan5193"
       x="-19.980185"
       y="-4.1432924"
       style="stroke-width:0.26458332px">+</tspan></text>
  <text
     xml:space="preserve"
     style="font-style:normal;font-variant:normal;font-weight:normal;font-stretch:normal;font-size:1.41111112px;line-height:125%;font-family:sans-serif;-inkscape-font-specification:sans-serif;letter-spacing:0px;word-spacing:0px;fill:#000000;fill-opacity:1;stroke:none;stroke-width:0.26458332px;stroke-linecap:butt;stroke-linejoin:miter;stroke-opacity:1"
     x="-11.830508"
     y="-4.1565323"
     id="text5195-4"><tspan
       sodipodi:role="line"
       id="tspan5193-7"
       x="-11.830508"
       y="-4.1565323"
       style="stroke-width:0.26458332px">-</tspan></text>
  <text
     xml:space="preserve"
     style="font-style:normal;font-variant:normal;font-weight:normal;font-stretch:normal;font-size:1.41111112px;line-height:125%;font-family:sans-serif;-inkscape-font-specification:sans-serif;letter-spacing:0px;word-spacing:0px;fill:#000000;fill-opacity:1;stroke:none;stroke-width:0.26458332px;stroke-linecap:butt;stroke-linejoin:miter;stroke-opacity:1"
     x="-17.621952"
     y="-5.827744"
     id="text5217"><tspan
       sodipodi:role="line"
       id="tspan5215"
       x="-17.621952"
       y="-5.827744"
       style="stroke-width:0.26458332px">12V DC</tspan></text>
  <path
     style="fill:#000000;stroke-width:0.05399801"
     d="M 7.7956063,4.604846 V 4.3460239 H 8.0655965 L 8.3877033,4.3455376 8.3919233,3.7176787 8.1719474,3.7139687 8.1735974,3.59005 V 3.3931691 h 0.1892779 l 0.104097,-0.0075 c 0,-0.3687275 0.606585,-0.3764055 0.606585,-0.011464 l 0.9228929,-8.935e-4 c 0.3757488,0 0.4204978,0.0649 0.7463898,0.3253115 0.169535,0.1283358 0.270372,0.1074143 0.562938,0.1074143 h 0.07077 v -0.296886 l -0.313963,-0.00402 -0.0025,-0.1537407 0.915004,0.00523 -0.002,0.1600911 -0.329677,-0.00326 0.0039,0.2817055 0.296741,-0.00442 -4.17e-4,0.4202811 -0.680945,0.01506 -0.252346,0.00345 C 10.80231,4.2319251 10.618491,4.13251 10.494704,4.0159198 10.360862,3.8904191 10.264514,3.8303307 10.093556,3.8113021 c -0.09227,-0.00745 -0.05961,-0.0043 -0.1571342,-0.00224 0,0.2062473 -0.412054,0.1917797 -0.40846,-0.00114 l -0.037434,-0.00188 H 9.1697262 v 0.2429923 0.2429911 h 0.350987 l -0.00231,-0.00708 c 0,-0.2077435 0.416204,-0.2160583 0.416204,0.00213 l 0.3640128,0.00494 V 4.5778461 4.7935089 H 9.0617287 7.7956063 Z"
     id="path5230"
     inkscape:connector-curvature="0"
     sodipodi:nodetypes="cccccccccccccsccccccccccccccccccccccccccccc" />
</svg>
